<svg width="119" height="31" viewBox="0 0 119 31" fill="none" xmlns="http://www.w3.org/2000/svg">
<path d="M16.1365 29.0938C16.1365 29.3545 16.0692 29.563 15.9345 29.7198C15.814 29.876 15.5992 29.9545 15.2901 29.9545C15.1285 29.9545 14.9605 29.9345 14.7861 29.8953C14.6117 29.8692 14.4437 29.8238 14.2821 29.7584C13.9468 29.6676 13.6781 29.5829 13.4761 29.5045C13.2882 29.4261 13.1401 29.3222 13.0331 29.1915C12.9388 29.0739 12.8785 28.9177 12.8516 28.7223C12.8247 28.5263 12.8048 28.2593 12.7913 27.9201C12.6836 25.2473 12.563 22.6006 12.4284 19.9801C12.3072 17.3459 12.1059 14.6992 11.8237 12.0393C11.6359 12.939 11.4544 13.8387 11.28 14.7383C11.105 15.6379 10.9235 16.5507 10.7356 17.4765C10.5478 18.4411 10.3663 19.4256 10.1919 20.4294C10.0303 21.4338 9.76869 22.4052 9.40576 23.3437C9.25765 23.722 9.07683 24.022 8.86138 24.2435C8.64658 24.452 8.31764 24.5566 7.87392 24.5566C7.5514 24.5566 7.28978 24.5043 7.08844 24.3997C6.88647 24.2827 6.69219 24.1128 6.50367 23.8913C6.32927 23.709 6.14139 23.3567 5.93941 22.8352C5.73807 22.3138 5.52327 21.7076 5.295 21.0162C5.07956 20.3124 4.86476 19.5625 4.64996 18.7672C4.43516 17.9719 4.23318 17.2091 4.04531 16.4789C3.85744 15.7358 3.68944 15.0578 3.54132 14.4449C3.39384 13.8321 3.27971 13.3693 3.19892 13.0564V15.7162C3.19892 17.4504 3.23225 19.1779 3.29957 20.8992C3.3669 22.6199 3.48104 24.3344 3.64262 26.0426C3.68238 26.421 3.73624 26.7987 3.80357 27.1771C3.88436 27.5555 3.92411 27.9332 3.92411 28.3116C3.92411 28.6501 3.80356 28.8723 3.56182 28.9762C3.33356 29.0807 3.07836 29.133 2.79623 29.133C2.02999 29.133 1.4388 28.9762 1.02266 28.6632C0.619346 28.3377 0.418012 27.7901 0.418012 27.0209C0.418012 25.4427 0.37762 23.8782 0.296828 22.3268C0.216677 20.7754 0.17627 19.2103 0.17627 17.6328C0.17627 17.4112 0.17627 17.0266 0.17627 16.4789C0.189735 15.9313 0.203212 15.2859 0.216677 14.5427C0.230143 13.7865 0.2436 12.9716 0.257066 12.098C0.283996 11.2114 0.310286 10.3183 0.337216 9.4186C0.364147 8.51893 0.391082 7.64533 0.418012 6.79787C0.444943 5.93728 0.471878 5.16805 0.498809 4.49004C0.525739 3.81204 0.55267 3.2514 0.578959 2.80806C0.619355 2.35172 0.659748 2.07791 0.700144 1.98662C0.76747 1.80409 0.841214 1.68673 0.922005 1.63458C1.01562 1.58243 1.15669 1.55635 1.3452 1.55635C1.8556 1.55635 2.27878 1.66719 2.61477 1.88885C2.96359 2.09745 3.19891 2.45603 3.3201 2.96451C3.50797 3.23833 3.72278 3.74034 3.96451 4.4705C4.20625 5.18758 4.46209 6.02857 4.73076 6.9934C4.99942 7.95829 5.26808 9.00134 5.53674 10.1227C5.81887 11.2309 6.08049 12.3001 6.32222 13.3301C6.57742 14.3602 6.80633 15.3055 7.00767 16.166C7.22247 17.0266 7.39045 17.685 7.51164 18.1412C7.90085 15.8987 8.29712 13.6691 8.70044 11.4526C9.10311 9.23607 9.48656 7.00646 9.84884 4.76385C9.91617 4.38574 9.9835 4.0141 10.0508 3.64905C10.131 3.28394 10.1714 2.91237 10.1714 2.53425C10.1714 2.29958 10.138 2.08445 10.0707 1.88885C10.0034 1.68026 9.97003 1.46506 9.97003 1.24346C9.97003 0.969641 10.0572 0.80666 10.2316 0.754511C10.4201 0.689293 10.6279 0.656682 10.8568 0.656682C11.0716 0.656682 11.3268 0.689293 11.6224 0.754511C11.918 0.819666 12.2001 0.917492 12.4688 1.04787C12.7509 1.17824 12.9863 1.34122 13.1741 1.53681C13.3755 1.7324 13.4761 1.96054 13.4761 2.22135C13.4761 2.67769 13.4357 3.16011 13.3556 3.66859C13.839 5.87212 14.2424 8.08213 14.5643 10.2987C14.8868 12.5022 15.1285 14.7253 15.2901 16.9679C15.451 18.8973 15.5786 20.814 15.6729 22.7176C15.7806 24.6213 15.9082 26.5249 16.0557 28.4286C16.0826 28.5462 16.1025 28.6569 16.116 28.7615C16.1294 28.8654 16.1365 28.9762 16.1365 29.0938ZM26.7766 21.0362C26.7766 22.17 26.6753 23.3045 26.474 24.4389C26.2861 25.5603 25.8898 26.6226 25.2852 27.627C25.0973 27.927 24.8819 28.2201 24.6401 28.507C24.3984 28.7808 24.1297 29.0285 23.8341 29.25C23.552 29.4846 23.2365 29.6676 22.8871 29.7976C22.5511 29.9414 22.1952 30.0129 21.8188 30.0129C21.2276 30.0129 20.7108 29.876 20.2671 29.6022C19.8375 29.3415 19.4611 28.9961 19.1386 28.5655C18.8302 28.1224 18.5679 27.627 18.3531 27.0794C18.1518 26.5187 17.9902 25.9511 17.8697 25.378C17.7619 24.7912 17.6811 24.2236 17.6273 23.676C17.5875 23.1284 17.567 22.6461 17.567 22.2291C17.567 21.7593 17.5875 21.2446 17.6273 20.6839C17.6677 20.1232 17.735 19.5495 17.8293 18.9626C17.9363 18.3758 18.071 17.7958 18.2319 17.2222C18.407 16.6484 18.6282 16.1139 18.8969 15.6184C19.1655 15.1099 19.4881 14.66 19.8644 14.2689C20.2408 13.8647 20.6768 13.5453 21.1744 13.3106V13.3301C21.604 13.1085 22.0343 12.9977 22.4639 12.9977C22.7325 12.9977 22.9409 13.0564 23.0884 13.1737C23.2365 13.278 23.3038 13.4606 23.2904 13.7213C24.029 13.8517 24.6266 14.1972 25.0838 14.7579C25.5404 15.3185 25.8898 15.9704 26.1316 16.7137C26.3868 17.4566 26.5548 18.2196 26.6355 19.0018C26.7292 19.7841 26.7766 20.4624 26.7766 21.0362ZM22.2221 16.1465C21.9939 16.1465 21.7791 16.0617 21.5771 15.8922C21.3219 16.2703 21.1071 16.7071 20.9327 17.2026C20.7576 17.685 20.6166 18.1872 20.5095 18.7087C20.4152 19.2171 20.3479 19.7318 20.3075 20.2533C20.2671 20.7754 20.2472 21.2639 20.2472 21.7207C20.2472 22.0984 20.2671 22.5876 20.3075 23.1875C20.3479 23.7737 20.4216 24.3674 20.5294 24.9673C20.6505 25.5666 20.8115 26.1273 21.0128 26.6488C21.2276 27.1702 21.5033 27.5555 21.8393 27.8031C22.2555 27.5679 22.5985 27.1964 22.8672 26.688C23.1493 26.1665 23.3705 25.5995 23.5321 24.9866C23.6931 24.3736 23.8008 23.7544 23.8546 23.1284C23.9213 22.5029 23.9553 21.9684 23.9553 21.5247C23.9553 21.1992 23.9348 20.7754 23.8944 20.2533C23.8547 19.7318 23.7873 19.2041 23.6931 18.6695C23.5995 18.1219 23.4648 17.6135 23.2904 17.1439C23.1288 16.6745 22.9204 16.3225 22.6652 16.0878C22.5447 16.1269 22.3966 16.1465 22.2221 16.1465ZM35.6836 14.8752C35.6836 16.6745 35.5355 18.448 35.2399 20.1948C34.9577 21.9422 34.6153 23.6828 34.212 25.4166C34.1588 25.5865 34.1248 25.7296 34.1113 25.8472C34.0312 26.225 33.9434 26.6164 33.8497 27.0209C33.7689 27.4117 33.6349 27.8031 33.4464 28.1939C33.272 28.52 33.0303 28.8069 32.7212 29.0546C32.4256 29.2892 32.0967 29.4068 31.7338 29.4068C31.5856 29.4068 31.4311 29.3738 31.2702 29.3091C31.1092 29.2438 30.9342 29.1591 30.7463 29.0546C30.4776 28.8723 30.2763 28.6246 30.1416 28.3116C30.0076 27.9855 29.8929 27.6532 29.7992 27.314L29.7589 27.1771V27.1964C29.5306 26.3488 29.3357 25.5018 29.1747 24.6543C29.0266 23.8067 28.8791 22.9529 28.731 22.0922C28.6502 21.5576 28.5701 21.0293 28.4893 20.5078C28.4085 19.9733 28.3149 19.4449 28.2071 18.9234L27.925 17.7697C27.8577 17.5089 27.784 17.2287 27.7032 16.9288C27.6365 16.6158 27.5692 16.3225 27.5018 16.0487C27.4345 15.7749 27.3806 15.5336 27.3409 15.325C27.3005 15.1034 27.28 14.9535 27.28 14.8752C27.28 14.6275 27.3607 14.4645 27.5217 14.3862C27.6967 14.295 27.8917 14.2494 28.1065 14.2494C28.5361 14.2494 28.9125 14.3406 29.235 14.5231C29.571 14.7057 29.8127 15.0056 29.9602 15.4228C30.041 15.6445 30.1083 15.8791 30.1615 16.1269C30.2289 16.3746 30.2827 16.6224 30.3231 16.8701C30.5514 17.7305 30.7662 18.6434 30.9682 19.608C31.183 20.5601 31.3644 21.4792 31.5119 22.366L31.6934 23.3636C31.7068 23.4283 31.7132 23.4806 31.7132 23.5198C31.7132 23.559 31.7132 23.5914 31.7132 23.6175C31.7267 23.6436 31.7338 23.676 31.7338 23.7152C31.7472 23.7544 31.7607 23.8129 31.7742 23.8913C32.0698 22.5092 32.3179 21.127 32.5199 19.7449C32.7212 18.3503 32.8219 16.9483 32.8219 15.5402C32.8219 15.2533 32.802 14.973 32.7616 14.6992C32.7347 14.4254 32.7007 14.1386 32.6609 13.8387C32.6205 13.5648 32.5802 13.2845 32.5398 12.9977C32.5128 12.6978 32.4994 12.3979 32.4994 12.098C32.4994 11.8242 32.5866 11.6351 32.7616 11.5308C32.936 11.4265 33.1508 11.3744 33.406 11.3744C33.7151 11.3744 33.9972 11.3939 34.2524 11.4331C34.5076 11.4721 34.7295 11.5504 34.9173 11.6677C35.1058 11.772 35.2604 11.9285 35.3809 12.1371C35.5021 12.3327 35.5829 12.5935 35.6227 12.9194C35.6496 13.2193 35.6631 13.5453 35.6631 13.8973C35.6765 14.2363 35.6836 14.5623 35.6836 14.8752ZM39.7943 12.6065C39.7943 12.8282 39.7405 12.9911 39.6334 13.0954C39.5391 13.1867 39.3577 13.2323 39.089 13.2323C38.9678 13.2323 38.7799 13.2193 38.5247 13.1933C38.2695 13.1541 38.0073 13.102 37.7386 13.0368C37.4834 12.9716 37.2552 12.8803 37.0538 12.7629C36.8653 12.6456 36.7717 12.5022 36.7717 12.3327C36.7717 12.2805 36.7916 12.1371 36.832 11.9024C36.8724 11.6547 36.9192 11.3939 36.973 11.1201C37.0404 10.8463 37.0942 10.5986 37.1346 10.377C37.1878 10.1553 37.2282 10.0314 37.2552 10.0053V10.0248C37.3225 9.92055 37.4033 9.85539 37.4969 9.82932C37.5912 9.80324 37.6854 9.79018 37.779 9.79018C37.9002 9.79018 38.0547 9.80972 38.2426 9.84886C38.444 9.87493 38.6389 9.92055 38.8268 9.98577C39.0287 10.0379 39.2102 10.1096 39.3711 10.2009C39.5321 10.2922 39.6334 10.39 39.6731 10.4943C39.7135 10.5986 39.7341 10.742 39.7341 10.9245C39.7475 11.094 39.7475 11.2505 39.7341 11.3939C39.7341 11.4461 39.727 11.5113 39.7135 11.5895C39.7135 11.6547 39.7135 11.7068 39.7135 11.746C39.7135 11.8112 39.7135 11.8763 39.7135 11.9416C39.727 12.0067 39.7405 12.0719 39.7539 12.1371C39.7674 12.2023 39.7745 12.274 39.7745 12.3523C39.7879 12.4305 39.7943 12.5153 39.7943 12.6065ZM40.5401 28.1939C40.5401 28.4939 40.4663 28.7092 40.3182 28.8393C40.1842 28.9569 39.9623 29.0154 39.6533 29.0154C39.4923 29.0154 39.3109 28.9961 39.1089 28.9569C38.921 28.9177 38.7331 28.8654 38.5446 28.8001C38.3568 28.7223 38.1824 28.6308 38.0208 28.5263C37.8598 28.4223 37.7386 28.3047 37.6585 28.1747C37.6046 28.0962 37.5572 27.8548 37.5174 27.4509C37.477 27.0464 37.443 26.5448 37.4161 25.9449C37.4033 25.345 37.3828 24.6735 37.3558 23.9305C37.3424 23.1875 37.3289 22.4376 37.3154 21.6815C37.3154 20.9254 37.3154 20.1886 37.3154 19.471C37.3154 18.7541 37.3154 18.1281 37.3154 17.5935V16.0878C37.3154 15.9574 37.3154 15.827 37.3154 15.6966C37.3289 15.5663 37.3558 15.4554 37.3962 15.3641C37.4501 15.2598 37.5238 15.1751 37.6181 15.1099C37.7252 15.0447 37.8733 15.0121 38.0612 15.0121C38.6523 15.0121 39.0826 15.1751 39.3513 15.501C39.6334 15.814 39.8078 16.2377 39.8751 16.7723C39.9418 17.5674 39.9893 18.3627 40.0162 19.1586C40.0566 19.9409 40.0899 20.7362 40.1169 21.5446C40.1438 22.2745 40.1637 22.9983 40.1771 23.7152C40.2041 24.4196 40.2509 25.1235 40.3182 25.8273C40.3317 25.9711 40.3451 26.108 40.3586 26.238C40.3721 26.3687 40.3919 26.4988 40.4189 26.6295C40.4458 26.8902 40.4727 27.151 40.4997 27.4117C40.5266 27.6594 40.5401 27.9201 40.5401 28.1939ZM50.1523 25.4757C50.1523 25.8665 50.0382 26.271 49.8099 26.688C49.5945 27.1055 49.3124 27.4901 48.9635 27.8417C48.6141 28.1809 48.2108 28.4615 47.7542 28.6831C47.3112 28.9046 46.8675 29.0154 46.4244 29.0154C45.7928 29.0154 45.2484 28.8984 44.7919 28.6632C44.3353 28.4155 43.9391 28.09 43.6031 27.6855C43.2671 27.2686 42.992 26.7987 42.7766 26.2772C42.5752 25.7557 42.4143 25.2212 42.2931 24.6735C42.1719 24.1128 42.0847 23.559 42.0309 23.0114C41.9911 22.4507 41.9706 21.9422 41.9706 21.4855C41.9706 21.0947 41.9911 20.6317 42.0309 20.0971C42.0847 19.5625 42.1655 19.0087 42.2732 18.4349C42.3938 17.8611 42.5554 17.2936 42.7567 16.7332C42.958 16.1726 43.2068 15.6706 43.5024 15.2272C43.8115 14.7839 44.1737 14.4254 44.5905 14.1516C45.0201 13.8777 45.5107 13.7408 46.0615 13.7408C46.4911 13.7408 46.8745 13.8256 47.2099 13.9951C47.5593 14.1646 47.8485 14.3928 48.0768 14.6796C48.3185 14.9535 48.4999 15.2729 48.6205 15.6379C48.7551 16.003 48.8225 16.3812 48.8225 16.7723C48.8225 17.2805 48.7013 17.835 48.4596 18.4349C48.2178 19.0342 47.9017 19.6148 47.5125 20.1755C47.1361 20.7362 46.7065 21.2446 46.2224 21.7008C45.7524 22.1445 45.2824 22.483 44.8117 22.7176C44.8387 22.9529 44.8925 23.2982 44.9733 23.7544C45.0541 24.1975 45.1612 24.6412 45.2959 25.0843C45.4433 25.528 45.6113 25.9126 45.7992 26.238C46.0012 26.5641 46.2359 26.7272 46.5045 26.7272C46.6392 26.7272 46.7533 26.688 46.8476 26.6102C46.9547 26.5318 47.0489 26.4272 47.1297 26.2971C47.2099 26.1665 47.2772 26.0233 47.331 25.8665C47.3984 25.7103 47.4586 25.5603 47.5125 25.4166L47.6331 25.1428C47.66 25.1042 47.6734 25.078 47.6734 25.065C47.6869 25.0519 47.7004 25.032 47.7138 25.0059C47.8081 24.8366 47.8953 24.6804 47.9761 24.5366C48.0697 24.3935 48.1973 24.2697 48.3589 24.1651H48.3384C48.3922 24.1128 48.4461 24.0867 48.5 24.0867C48.5673 24.0736 48.6275 24.0674 48.6814 24.0674C48.8289 24.0674 48.9905 24.1128 49.1649 24.2043C49.3393 24.2958 49.5009 24.4128 49.6483 24.5566C49.7965 24.6866 49.917 24.8366 50.0113 25.0059C50.1055 25.1627 50.1523 25.3189 50.1523 25.4757ZM46.1621 16.8506C46.1621 16.7201 46.1557 16.5832 46.1422 16.4398C46.1288 16.2964 46.0948 16.1726 46.0416 16.0682C45.8531 16.2899 45.6851 16.5572 45.5376 16.8701C45.4029 17.17 45.2888 17.4896 45.1952 17.8282C45.1009 18.1542 45.0201 18.4872 44.9528 18.8257C44.8996 19.1649 44.8592 19.4779 44.8323 19.7648C45.1817 19.3603 45.4908 18.9041 45.7595 18.3957C46.0281 17.8742 46.1621 17.3589 46.1621 16.8506ZM57.9109 14.7187C57.9109 14.8752 57.85 15.0056 57.7294 15.1099C57.6217 15.2142 57.4877 15.3055 57.3261 15.3837C57.1652 15.4489 56.9972 15.4946 56.8221 15.5206C56.6612 15.5467 56.5272 15.5597 56.4195 15.5597C56.2579 15.5597 56.104 15.5467 55.9559 15.5206C55.8084 15.4815 55.6603 15.4424 55.5128 15.4033C55.3647 15.3641 55.2236 15.3316 55.0896 15.3055C54.955 15.2664 54.8139 15.2468 54.6664 15.2468C54.4644 15.2468 54.2631 15.2794 54.0618 15.3446C53.8604 15.4098 53.679 15.501 53.5174 15.6184C53.3564 15.7358 53.2218 15.8791 53.1147 16.0487C53.0204 16.2182 52.9736 16.4072 52.9736 16.6158C52.9736 16.9288 53.041 17.2419 53.175 17.5543C53.3096 17.8543 53.484 18.1611 53.6988 18.4741C53.9271 18.7865 54.1823 19.1064 54.4644 19.4325C54.76 19.7449 55.0691 20.0647 55.3916 20.3902C55.7815 20.8078 56.1707 21.2316 56.5605 21.6616C56.9632 22.0922 57.3197 22.5421 57.6288 23.0114C57.9507 23.4806 58.2129 23.9759 58.4142 24.4974C58.6162 25.0189 58.7169 25.5666 58.7169 26.1403C58.7169 26.6357 58.629 27.0794 58.4546 27.4702C58.2937 27.8616 58.0584 28.1939 57.7493 28.4678C57.4537 28.7416 57.0914 28.95 56.6612 29.0938C56.2451 29.25 55.7879 29.3284 55.2909 29.3284C55.1563 29.3284 54.9485 29.3023 54.6664 29.25C54.3977 29.1977 54.0887 29.1262 53.7392 29.0353C53.3898 28.9308 53.0275 28.82 52.6511 28.7024C52.2882 28.5854 51.9522 28.4615 51.6438 28.3308C51.3482 28.1877 51.0994 28.0508 50.898 27.9201C50.7095 27.777 50.6159 27.6463 50.6159 27.5293C50.6159 27.3725 50.6897 27.2163 50.8371 27.0595C50.9853 26.8902 51.1597 26.7402 51.3617 26.6102C51.563 26.4664 51.7714 26.3488 51.9862 26.2579C52.2145 26.1665 52.4023 26.121 52.5504 26.121C52.7518 26.121 52.9602 26.1665 53.175 26.2579C53.4032 26.3488 53.6315 26.4533 53.8604 26.571C54.1156 26.701 54.3708 26.8186 54.626 26.9226C54.8947 27.0271 55.1698 27.0794 55.4519 27.0794C55.6673 27.0794 55.7879 27.0078 55.8148 26.8641C55.8552 26.7209 55.8751 26.5579 55.8751 26.3749C55.8751 25.9188 55.7949 25.4888 55.6333 25.0843C55.4724 24.6673 55.264 24.2628 55.0088 23.872C54.7536 23.4806 54.458 23.1022 54.122 22.7375C53.786 22.3592 53.4507 21.9877 53.1147 21.6224C52.7652 21.2577 52.4228 20.8924 52.0868 20.5271C51.7643 20.1624 51.4758 19.7909 51.2206 19.4125C50.9647 19.0217 50.757 18.6241 50.5954 18.2196C50.4479 17.8151 50.3742 17.3851 50.3742 16.9288C50.3742 16.3681 50.5018 15.8661 50.757 15.4228C51.0122 14.9665 51.3411 14.5753 51.7444 14.2494C52.1606 13.9234 52.6242 13.6757 53.1346 13.5062C53.6584 13.3236 54.1823 13.2323 54.7068 13.2323C54.8812 13.2323 55.1499 13.2715 55.5128 13.3497C55.8751 13.4149 56.2316 13.5127 56.5804 13.6431C56.9299 13.7734 57.2389 13.9299 57.5076 14.1125C57.7762 14.295 57.9109 14.4971 57.9109 14.7187ZM79.9363 21.3878C79.9363 22.9137 79.6811 24.2435 79.1707 25.378C78.6737 26.5118 77.9748 27.4571 77.0746 28.2139C76.1749 28.97 75.0997 29.5307 73.8506 29.8953C72.6143 30.2737 71.2575 30.4629 69.7802 30.4629H69.0948C68.9601 30.4629 68.7588 30.456 68.4901 30.443C68.2215 30.443 67.9464 30.4168 67.6643 30.3652C67.3956 30.326 67.1532 30.2544 66.9384 30.1499C66.7371 30.0453 66.6364 29.9022 66.6364 29.7198C66.6364 29.5107 66.6832 29.3023 66.7775 29.0938C66.8846 28.8984 67.0192 28.7223 67.1801 28.5655C67.3417 28.3962 67.5232 28.2593 67.7245 28.1547C67.9259 28.0377 68.1272 27.9593 68.3292 27.9201C68.2215 27.7901 68.1407 27.614 68.0874 27.3924C68.0336 27.1702 67.9861 26.9356 67.9464 26.688C67.906 26.4403 67.872 26.1994 67.8451 25.9642C67.8323 25.7165 67.8188 25.5081 67.8053 25.3388C67.5629 23.3175 67.3552 21.3031 67.1801 19.2956C67.0057 17.2874 66.9185 15.2598 66.9185 13.2128C66.9185 11.9089 66.9384 10.6182 66.9788 9.34037C67.0192 8.06259 67.0526 6.77179 67.0795 5.46793C67.1064 4.93331 67.1135 4.40528 67.1 3.88372C67.1 3.36217 67.1199 2.83414 67.1603 2.29957C67.0795 2.32565 66.9923 2.33866 66.898 2.33866C66.8044 2.33866 66.7037 2.33866 66.596 2.33866C66.3947 2.33866 66.1927 2.30605 65.9913 2.24089C65.8035 2.16267 65.7092 1.98662 65.7092 1.7128C65.7092 1.37383 65.783 1.10002 65.9311 0.891419C66.0786 0.682759 66.2671 0.526309 66.4953 0.42201C66.7236 0.304643 66.9788 0.232951 67.2609 0.206877C67.5565 0.167733 67.8451 0.148193 68.1272 0.148193C69.4173 0.148193 70.6664 0.304643 71.8757 0.617602C73.085 0.930499 74.1526 1.41291 75.0798 2.06484C76.007 2.71677 76.7527 3.55122 77.3169 4.56826C77.8812 5.57223 78.1633 6.77179 78.1633 8.16688C78.1633 9.31429 77.9479 10.4095 77.5183 11.4526C77.088 12.4957 76.4571 13.4214 75.6242 14.2298C76.3763 14.5427 77.0213 14.9535 77.5587 15.462C78.1095 15.9574 78.5596 16.5181 78.9084 17.1439C79.2579 17.7697 79.513 18.448 79.6746 19.1779C79.849 19.8948 79.9363 20.6317 79.9363 21.3878ZM75.0997 7.89307C75.0997 7.11077 74.972 6.41976 74.7168 5.81998C74.4616 5.20713 74.1058 4.6791 73.6492 4.23577C73.1921 3.77943 72.6483 3.41438 72.0167 3.14056C71.3852 2.85368 70.6933 2.63855 69.9412 2.4951C69.9681 2.56032 69.9816 2.61901 69.9816 2.67115C69.9816 2.7233 69.9816 2.76892 69.9816 2.80806C69.9816 4.04671 69.9681 5.27234 69.9412 6.48491C69.9142 7.68447 69.9008 8.89704 69.9008 10.1227V12.1567C69.9008 12.4174 69.9078 12.6847 69.9213 12.9585C69.9341 13.2193 69.9412 13.4866 69.9412 13.7604C70.2906 13.617 70.6394 13.5453 70.9889 13.5453C71.3518 13.5322 71.7147 13.5257 72.077 13.5257C73.085 12.9129 73.8371 12.111 74.3341 11.1201C74.8445 10.1161 75.0997 9.04048 75.0997 7.89307ZM76.9136 21.3486C76.9136 20.7231 76.8533 20.1164 76.7322 19.5302C76.6251 18.9433 76.4301 18.4088 76.148 17.9265C75.8659 17.4305 75.4966 17.007 75.0394 16.655C74.5828 16.3029 74.0115 16.0421 73.3267 15.8727C72.3053 16.4333 71.2172 16.8114 70.0623 17.007C70.1694 18.4803 70.297 19.954 70.4452 21.427C70.6061 22.8875 70.8279 24.3475 71.1101 25.808C71.1774 26.1472 71.2511 26.4857 71.3313 26.8249C71.4255 27.151 71.4858 27.4901 71.5128 27.8417C72.413 27.7247 73.1991 27.4833 73.8705 27.1186C74.5559 26.7402 75.1202 26.271 75.5632 25.7103C76.0204 25.1365 76.3558 24.4781 76.5712 23.7351C76.7995 22.9914 76.9136 22.1961 76.9136 21.3486ZM89.9313 28.8001C89.9313 29.0608 89.8646 29.2369 89.73 29.3284C89.596 29.433 89.4075 29.4846 89.1657 29.4846C88.5341 29.4846 88.0776 29.3222 87.7955 28.9961C87.5268 28.67 87.3255 28.24 87.1908 27.7048C87.1504 27.5225 87.11 27.3401 87.0703 27.1578C87.0299 26.9618 86.9959 26.7726 86.969 26.5903C86.9427 26.421 86.9157 26.3034 86.8888 26.238C86.8619 26.1733 86.835 26.0495 86.808 25.8665C86.6471 26.2449 86.4451 26.6425 86.2034 27.0595C85.9751 27.464 85.7064 27.8417 85.3974 28.1939C85.0883 28.5331 84.7389 28.8131 84.3497 29.0353C83.9733 29.2568 83.5571 29.3676 83.0999 29.3676C82.6165 29.3676 82.2132 29.2568 81.8913 29.0353C81.5687 28.8001 81.3136 28.5132 81.125 28.1747C80.9506 27.8224 80.823 27.4378 80.7422 27.0209C80.6756 26.6033 80.6416 26.2057 80.6416 25.8273C80.6416 24.9411 80.7288 23.9828 80.9038 22.9529C81.0917 21.9093 81.3469 20.8731 81.6694 19.8432C81.992 18.7996 82.3677 17.8026 82.7979 16.8506C83.2275 15.8857 83.6982 15.0447 84.2086 14.3276V14.3472L84.3291 14.1711C84.4772 13.9756 84.6452 13.7669 84.8331 13.5453C85.0345 13.3106 85.2698 13.1933 85.5385 13.1933C85.7936 13.1933 86.0155 13.304 86.2034 13.5257C86.3919 13.7344 86.5259 13.956 86.6067 14.1907C86.9561 14.2559 87.2376 14.3406 87.4531 14.4449C87.6679 14.5362 87.8359 14.6536 87.9564 14.797C88.0776 14.9404 88.1584 15.1099 88.1988 15.3055C88.2385 15.488 88.2591 15.6901 88.2591 15.9118C88.2591 16.0031 88.2591 16.1008 88.2591 16.2051C88.2591 16.3094 88.252 16.4138 88.2386 16.5181C88.2251 16.6224 88.2187 16.7462 88.2187 16.8897C88.2187 17.0331 88.2187 17.1635 88.2187 17.2805C88.2187 17.4112 88.2385 17.5805 88.2789 17.7896C88.3328 17.998 88.3867 18.2134 88.4405 18.4349L88.5816 19.1586C88.6483 19.5364 88.7021 19.967 88.7425 20.4493C88.7964 20.9316 88.8567 21.4139 88.924 21.8962C88.9779 22.3922 89.0317 22.8745 89.085 23.3437C89.1388 23.7998 89.1927 24.2236 89.2465 24.615L89.73 27.5094L89.7903 27.8417C89.8172 28.0116 89.8441 28.1678 89.8711 28.3116C89.9115 28.4547 89.9313 28.6177 89.9313 28.8001ZM85.3166 17.5543C85.3166 17.5288 85.3102 17.4896 85.2967 17.4373C85.2832 17.372 85.2698 17.3067 85.2563 17.2419C84.9473 17.8804 84.6722 18.578 84.4305 19.3341C84.2015 20.0778 84.0072 20.8401 83.8457 21.6224C83.6982 22.3922 83.5841 23.1676 83.5033 23.9498C83.4359 24.7196 83.4026 25.4496 83.4026 26.1403C83.4026 26.2057 83.4026 26.2642 83.4026 26.3164C83.4026 26.3687 83.409 26.421 83.4225 26.4733V26.4926C83.745 26.0103 84.0207 25.378 84.249 24.5951C84.4907 23.7998 84.6921 22.9722 84.8536 22.1115C85.0146 21.2378 85.1287 20.397 85.1961 19.5887C85.2768 18.7672 85.3166 18.0889 85.3166 17.5543ZM99.6244 26.8641C99.6244 27.0987 99.5237 27.314 99.3224 27.5094C99.1204 27.7048 98.8588 27.8809 98.5363 28.0377C98.2272 28.1809 97.8713 28.3116 97.468 28.4286C97.0788 28.5462 96.696 28.6439 96.3196 28.7223C95.9433 28.787 95.5944 28.8393 95.2719 28.8785C94.9629 28.9177 94.7211 28.937 94.5461 28.937C94.2107 28.937 93.8542 28.9115 93.4785 28.8592C93.1021 28.8069 92.7327 28.7285 92.3698 28.6246C92.0069 28.507 91.6645 28.3638 91.342 28.1939C91.0195 28.0116 90.7444 27.7963 90.5161 27.5486V27.5679C90.4084 27.464 90.3077 27.3401 90.2135 27.1964C90.1064 27.0533 90.0525 26.8902 90.0525 26.7079C90.0525 26.5903 90.0993 26.4857 90.1936 26.3948C90.2878 26.3034 90.3949 26.238 90.5161 26.1994C90.6501 25.8864 90.7912 25.5734 90.9393 25.2604C91.0868 24.9474 91.2349 24.6412 91.3824 24.3412L91.685 23.6567C92.3968 22.3007 93.0553 20.9577 93.6593 19.6279C94.2774 18.298 94.8891 16.9223 95.4931 15.501L94.6871 15.5402L93.6997 15.5989L93.0348 15.6771C92.8469 15.7032 92.6654 15.7227 92.491 15.7358C92.3294 15.7488 92.1614 15.7553 91.987 15.7553C91.4766 15.7553 91.2214 15.5141 91.2214 15.0317C91.2214 14.81 91.2484 14.6144 91.3016 14.4449C91.3555 14.2624 91.4561 14.0994 91.6042 13.956C91.6716 13.8777 91.846 13.8061 92.1281 13.7408C92.4237 13.6626 92.7661 13.5975 93.156 13.5453C93.5452 13.4801 93.9619 13.4214 94.405 13.3693C94.8622 13.3171 95.2989 13.2715 95.715 13.2323C96.1318 13.1933 96.5011 13.1671 96.8236 13.1541C97.159 13.1281 97.3943 13.115 97.5289 13.115C97.7707 13.115 97.9919 13.1476 98.1939 13.2128C98.4087 13.278 98.5164 13.4736 98.5164 13.7995C98.5164 13.982 98.469 14.1842 98.3753 14.4058C98.2811 14.6144 98.1804 14.8035 98.0727 14.973C98.0996 15.0382 98.1131 15.136 98.1131 15.2664C98.1131 15.4098 98.0592 15.651 97.9521 15.99C97.8444 16.329 97.697 16.7397 97.5084 17.2222C97.334 17.7043 97.1256 18.2389 96.8839 18.8257C96.6422 19.4126 96.387 20.0125 96.1183 20.6254C95.8631 21.2378 95.6009 21.8508 95.3322 22.4637C95.0635 23.0767 94.8083 23.6499 94.5666 24.1844L93.4381 26.7272C93.6664 26.7794 93.9286 26.8056 94.2235 26.8056C94.8282 26.8056 95.3995 26.6948 95.9368 26.4733C96.4876 26.2511 96.9576 26.0296 97.3475 25.808C97.5758 25.6904 97.7771 25.5927 97.9521 25.5149C98.1265 25.4234 98.2676 25.378 98.3753 25.378C98.5498 25.378 98.7107 25.4297 98.8588 25.5342C99.0198 25.6257 99.1544 25.7495 99.2615 25.9057C99.3827 26.0495 99.4699 26.2057 99.5237 26.3749C99.5911 26.5448 99.6244 26.7079 99.6244 26.8641ZM108.27 25.4757C108.27 25.8665 108.156 26.271 107.927 26.688C107.712 27.1055 107.43 27.4901 107.08 27.8417C106.731 28.1809 106.328 28.4615 105.872 28.6831C105.428 28.9046 104.985 29.0154 104.541 29.0154C103.91 29.0154 103.366 28.8984 102.909 28.6632C102.452 28.4155 102.056 28.09 101.721 27.6855C101.385 27.2686 101.109 26.7987 100.894 26.2772C100.693 25.7557 100.531 25.2212 100.411 24.6735C100.289 24.1128 100.202 23.559 100.148 23.0114C100.108 22.4507 100.088 21.9422 100.088 21.4855C100.088 21.0947 100.108 20.6317 100.148 20.0971C100.202 19.5625 100.283 19.0087 100.39 18.4349C100.511 17.8611 100.672 17.2936 100.874 16.7332C101.075 16.1726 101.324 15.6706 101.619 15.2272C101.928 14.7839 102.291 14.4254 102.708 14.1516C103.138 13.8777 103.628 13.7408 104.179 13.7408C104.608 13.7408 104.991 13.8256 105.327 13.9951C105.677 14.1646 105.965 14.3928 106.194 14.6796C106.436 14.9535 106.617 15.2729 106.738 15.6379C106.873 16.003 106.939 16.3812 106.939 16.7723C106.939 17.2805 106.819 17.835 106.577 18.4349C106.335 19.0342 106.019 19.6148 105.63 20.1755C105.254 20.7362 104.823 21.2446 104.34 21.7008C103.87 22.1445 103.4 22.483 102.929 22.7176C102.956 22.9529 103.01 23.2982 103.091 23.7544C103.171 24.1975 103.279 24.6412 103.413 25.0843C103.561 25.528 103.729 25.9126 103.917 26.238C104.119 26.5641 104.353 26.7272 104.622 26.7272C104.757 26.7272 104.871 26.688 104.964 26.6102C105.072 26.5318 105.166 26.4272 105.246 26.2971C105.327 26.1665 105.395 26.0233 105.448 25.8665C105.516 25.7103 105.576 25.5603 105.63 25.4166L105.75 25.1428C105.777 25.1042 105.791 25.078 105.791 25.065C105.804 25.0519 105.818 25.032 105.831 25.0059C105.926 24.8366 106.013 24.6804 106.093 24.5366C106.187 24.3935 106.315 24.2697 106.476 24.1651H106.456C106.51 24.1128 106.564 24.0867 106.617 24.0867C106.684 24.0736 106.745 24.0674 106.798 24.0674C106.946 24.0674 107.107 24.1128 107.282 24.2043C107.457 24.2958 107.618 24.4128 107.766 24.5566C107.913 24.6866 108.034 24.8366 108.129 25.0059C108.222 25.1627 108.27 25.3189 108.27 25.4757ZM104.28 16.8506C104.28 16.7201 104.272 16.5832 104.26 16.4398C104.246 16.2964 104.212 16.1726 104.158 16.0682C103.97 16.2899 103.802 16.5572 103.655 16.8701C103.52 17.17 103.406 17.4896 103.312 17.8282C103.218 18.1542 103.138 18.4872 103.07 18.8257C103.016 19.1649 102.977 19.4779 102.95 19.7648C103.299 19.3603 103.608 18.9041 103.876 18.3957C104.145 17.8742 104.28 17.3589 104.28 16.8506ZM111.091 29.3676C110.889 29.3676 110.668 29.3415 110.425 29.2892C110.197 29.2369 109.976 29.1523 109.761 29.0353C109.559 28.9177 109.385 28.7746 109.237 28.6047C109.103 28.4223 109.035 28.207 109.035 27.9593C109.035 27.594 109.049 27.2356 109.076 26.884C109.116 26.5187 109.156 26.1602 109.196 25.808V25.8273L109.317 24.5173C109.358 24.0475 109.391 23.5329 109.418 22.9722C109.445 22.4115 109.465 21.8445 109.478 21.2708C109.505 20.6839 109.526 20.1102 109.539 19.5495C109.553 18.9888 109.559 18.4741 109.559 18.0043C109.559 17.7305 109.553 17.4566 109.539 17.183C109.539 16.8962 109.539 16.6093 109.539 16.3225C109.526 16.0747 109.519 15.8009 109.519 15.501C109.519 15.1881 109.519 14.9013 109.519 14.6405C109.519 14.3667 109.553 14.145 109.619 13.9756C109.7 13.793 109.915 13.7018 110.265 13.7018C110.574 13.7018 110.896 13.78 111.232 13.9364C111.581 14.0929 111.823 14.3145 111.957 14.6014H111.937C112.004 14.7448 112.052 14.9795 112.079 15.3055C112.118 15.6184 112.145 15.8988 112.159 16.1465C112.387 15.8075 112.642 15.4489 112.924 15.0708C113.22 14.6927 113.536 14.3472 113.872 14.0342C114.207 13.7083 114.564 13.4409 114.94 13.2323C115.316 13.0237 115.719 12.9194 116.149 12.9194C116.713 12.9194 117.143 13.0564 117.438 13.3301C117.734 13.6039 117.949 13.9495 118.083 14.3667C118.218 14.7709 118.292 15.2077 118.305 15.6771C118.319 16.1334 118.325 16.5507 118.325 16.9288V17.0852C118.325 17.2419 118.319 17.3981 118.305 17.5543C118.305 17.6981 118.278 17.835 118.224 17.9651C118.184 18.0827 118.103 18.1804 117.983 18.2588C117.875 18.3372 117.72 18.3758 117.519 18.3758C117.304 18.3758 117.076 18.3503 116.834 18.298C116.592 18.2327 116.364 18.1412 116.149 18.0242C115.948 17.9066 115.772 17.7634 115.625 17.5935C115.477 17.4112 115.397 17.2026 115.383 16.9679C115.383 16.8636 115.383 16.7593 115.383 16.655C115.383 16.5507 115.39 16.4463 115.403 16.342C115.403 16.2769 115.403 16.1986 115.403 16.1073C115.417 16.0031 115.424 15.9052 115.424 15.814C114.993 16.2312 114.611 16.7462 114.275 17.3589C113.952 17.9719 113.657 18.6241 113.388 19.3148C113.133 20.0056 112.911 20.7032 112.723 21.4077C112.535 22.0984 112.373 22.7245 112.239 23.2852V23.3437C112.199 23.7482 112.172 24.1458 112.159 24.5366C112.145 24.9281 112.132 25.3319 112.118 25.7495C112.105 26.2187 112.085 26.6948 112.058 27.1771C112.045 27.6594 112.011 28.1286 111.957 28.5854C111.93 28.8331 111.85 29.0222 111.716 29.1523C111.594 29.296 111.386 29.3676 111.091 29.3676Z" fill="white"/>
</svg>
