<svg width="61" height="59" viewBox="0 0 61 59" fill="none" xmlns="http://www.w3.org/2000/svg">
<path id="Vector" d="M0.405945 29.4787C0.405945 13.4393 13.8071 0.437439 30.331 0.437439C46.8548 0.437439 60.256 13.4393 60.256 29.4787C60.256 45.5181 46.8548 58.5199 30.331 58.5199C13.8071 58.5199 0.405945 45.5181 0.405945 29.4787ZM26.9069 18.3126C26.3363 18.0058 25.6951 17.8496 25.0474 17.8577C24.3934 17.8658 23.7586 18.0388 23.1944 18.3593C22.6365 18.6798 22.1684 19.1372 21.8478 19.6854C21.5272 20.2343 21.3541 20.8547 21.3541 21.4864V37.471C21.3541 38.1026 21.5272 38.7231 21.8478 39.2719C22.1684 39.8202 22.6365 40.2776 23.1944 40.5981C23.7586 40.9186 24.3934 41.0916 25.0474 41.0997C25.6951 41.1078 26.3363 40.9516 26.9069 40.6448L44.1361 31.3836C44.4823 31.195 44.7773 30.9193 44.9824 30.5845C45.1812 30.2491 45.2902 29.8676 45.2902 29.4787C45.2902 29.0897 45.1812 28.7083 44.9824 28.3729C44.7773 28.0381 44.4823 27.7624 44.1361 27.5738L26.9069 18.3126Z" fill="#F6F4FF"/>
</svg>
